#N canvas 827 239 527 327 12;
#X obj 576 214 r p1 @hv_param;
#X obj 576 891 dac~;
#X obj 399 141 hsl 128 17 0 1 0 0 empty empty empty -2 -8 0 10 #e4e4e4 #4d4d4d #373737 0 1;
#X obj 667 749 hsl 128 17 0 1 0 0 empty empty empty -2 -8 0 10 #e4e4e4 #4d4d4d #373737 0 1;
#X obj 576 276 * 1000;
#X obj 576 340 osc~;
#X obj 899 567 osc~;
#X obj 965 471 hsl 128 20 0 1 0 0 empty empty AMP\ Lfo\ FRQ -2 -8 0 10 #e4e4e4 #4d4d4d #373737 0 1;
#X obj 899 503 * 30;
#X obj 576 758 *~;
#X obj 798 276 hsl 128 20 0 1 0 0 empty empty FM\ FRQ -2 -8 0 10 #e4e4e4 #4d4d4d #373737 0 1;
#X obj 707 449 *~;
#X obj 1082 239 hsl 128 20 0 1 0 0 empty empty FM\ DPTH -2 -8 0 10 #e4e4e4 #4d4d4d #373737 0 1;
#X obj 707 307 * 500;
#X obj 576 307 *~;
#X obj 707 363 phasor~;
#X obj 994 194 r p4 @hv_param;
#X obj 576 589 *~;
#X obj 1336 227 tgl 25 0 empty empty empty 17 7 0 10 #e4e4e4 #4d4d4d #373737 0 1;
#X obj 1336 261 select 1 0;
#X obj 1336 356 tgl 25 0 empty empty empty 17 7 0 10 #e4e4e4 #4d4d4d #373737 0 1;
#X obj 1385 356 tgl 25 0 empty empty empty 17 7 0 10 #e4e4e4 #4d4d4d #373737 0 1;
#X obj 1385 299 bng 25 250 50 0 empty empty empty 17 7 0 10 #e4e4e4 #4d4d4d #373737;
#X obj 1336 299 bng 25 250 50 0 empty empty empty 17 7 0 10 #e4e4e4 #4d4d4d #373737;
#X obj 1250 273 loadbang;
#X obj 1336 194 r sw1 @hv_param;
#X msg 1253 305 1;
#X msg 1285 305 0;
#X obj 994 295 * 20;
#X obj 640 703 r p9 @hv_param;
#X obj 786 363 osc~;
#X obj 707 406 *~;
#X obj 786 406 *~;
#X obj 707 214 r p2 @hv_param;
#X obj 899 424 r p3 @hv_param;
#X obj 1512 241 s led1 @hv_param;
#X connect 0 0 4 0;
#X connect 2 0 4 0;
#X connect 3 0 9 1;
#X connect 4 0 14 1;
#X connect 5 0 17 0;
#X connect 6 0 17 1;
#X connect 7 0 8 0;
#X connect 8 0 6 0;
#X connect 9 0 1 1;
#X connect 9 0 1 0;
#X connect 10 0 13 0;
#X connect 11 0 14 0 48.................U....T8+++eE....U++++K1+++ue++++h8+++62+++uY++++;
#X connect 12 0 28 0;
#X connect 13 0 15 0;
#X connect 13 0 30 0;
#X connect 14 0 5 0;
#X connect 15 0 31 0;
#X connect 16 0 28 0;
#X connect 17 0 9 0;
#X connect 18 0 19 0;
#X connect 18 0 35 0;
#X connect 19 0 23 0;
#X connect 19 1 22 0;
#X connect 20 0 31 1;
#X connect 21 0 32 1;
#X connect 22 0 20 0;
#X connect 22 0 21 0;
#X connect 23 0 20 0;
#X connect 23 0 21 0;
#X connect 24 0 26 0;
#X connect 24 0 27 0;
#X connect 25 0 18 0;
#X connect 26 0 20 0;
#X connect 27 0 21 0;
#X connect 28 0 11 1;
#X connect 29 0 9 1;
#X connect 30 0 32 0;
#X connect 31 0 11 0;
#X connect 32 0 11 0;
#X connect 33 0 13 0;
#X connect 34 0 8 0;
